<svg width="32" height="32" viewBox="0 0 32 32" fill="none" xmlns="http://www.w3.org/2000/svg">
<rect x="12" y="2" width="8" height="1" fill="#1A1A1A"/>
<rect x="12" y="29" width="8" height="1" fill="#1A1A1A"/>
<rect x="2" y="12" width="1" height="8" fill="#1A1A1A"/>
<rect width="1" height="2" transform="matrix(-1 0 0 1 29 10)" fill="#1A1A1A"/>
<rect width="1" height="8" transform="matrix(-1 0 0 1 30 12)" fill="#1A1A1A"/>
<rect x="22" y="4" width="2" height="1" transform="rotate(180 22 4)" fill="#1A1A1A"/>
<rect x="24" y="5" width="2" height="1" transform="rotate(180 24 5)" fill="#1A1A1A"/>
<rect x="25" y="6" width="1" height="1" transform="rotate(180 25 6)" fill="#1A1A1A"/>
<rect x="26" y="7" width="1" height="1" transform="rotate(180 26 7)" fill="#1A1A1A"/>
<rect x="28" y="10" width="1" height="2" transform="rotate(180 28 10)" fill="#1A1A1A"/>
<rect x="27" y="8" width="1" height="1" transform="rotate(180 27 8)" fill="#1A1A1A"/>
<rect x="3" y="10" width="1" height="2" fill="#1A1A1A"/>
<rect width="2" height="1" transform="matrix(1 0 0 -1 10 4)" fill="#1A1A1A"/>
<rect width="2" height="1" transform="matrix(1 0 0 -1 8 5)" fill="#1A1A1A"/>
<rect width="1" height="1" transform="matrix(1 0 0 -1 7 6)" fill="#1A1A1A"/>
<rect width="1" height="1" transform="matrix(1 0 0 -1 6 7)" fill="#1A1A1A"/>
<rect width="1" height="2" transform="matrix(1 0 0 -1 4 10)" fill="#1A1A1A"/>
<rect width="1" height="1" transform="matrix(1 0 0 -1 5 8)" fill="#1A1A1A"/>
<rect x="29" y="22" width="1" height="2" transform="rotate(180 29 22)" fill="#1A1A1A"/>
<rect width="2" height="1" transform="matrix(-1 0 0 1 22 28)" fill="#1A1A1A"/>
<rect width="2" height="1" transform="matrix(-1 0 0 1 24 27)" fill="#1A1A1A"/>
<rect width="1" height="1" transform="matrix(-1 0 0 1 25 26)" fill="#1A1A1A"/>
<rect width="1" height="1" transform="matrix(-1 0 0 1 26 25)" fill="#1A1A1A"/>
<rect width="1" height="2" transform="matrix(-1 0 0 1 28 22)" fill="#1A1A1A"/>
<rect width="1" height="1" transform="matrix(-1 0 0 1 27 24)" fill="#1A1A1A"/>
<rect width="1" height="2" transform="matrix(1 0 0 -1 3 22)" fill="#1A1A1A"/>
<rect x="10" y="28" width="2" height="1" fill="#1A1A1A"/>
<rect x="8" y="27" width="2" height="1" fill="#1A1A1A"/>
<rect x="7" y="26" width="1" height="1" fill="#1A1A1A"/>
<rect x="6" y="25" width="1" height="1" fill="#1A1A1A"/>
<rect x="4" y="22" width="1" height="2" fill="#1A1A1A"/>
<rect x="5" y="24" width="1" height="1" fill="#1A1A1A"/>
<rect x="13" y="24" width="6" height="1" fill="#1A1A1A"/>
<rect x="12" y="23" width="1" height="1" fill="#1A1A1A"/>
<rect x="11" y="22" width="1" height="1" fill="#1A1A1A"/>
<rect x="10" y="21" width="1" height="1" fill="#1A1A1A"/>
<rect x="9" y="20" width="3" height="1" fill="#1A1A1A"/>
<rect x="20" y="22" width="1" height="1" fill="#1A1A1A"/>
<rect x="21" y="21" width="1" height="1" fill="#1A1A1A"/>
<rect x="20" y="20" width="3" height="1" fill="#1A1A1A"/>
<rect x="19" y="23" width="1" height="1" fill="#1A1A1A"/>
<path d="M11.1176 9.58838H11.4706V9.94132H11.1176V9.58838ZM11.4706 9.58838H11.8235V9.94132H11.4706V9.58838ZM11.8235 9.94132H12.1765V10.2943H11.8235V9.94132ZM12.5294 9.94132H12.8824V10.2943H12.5294V9.94132ZM12.1765 9.94132H12.5294V10.2943H12.1765V9.94132ZM11.4706 9.94132H11.8235V10.2943H11.4706V9.94132ZM11.1176 9.94132H11.4706V10.2943H11.1176V9.94132ZM10.7647 9.94132H11.1176V10.2943H10.7647V9.94132ZM10.4118 9.94132H10.7647V10.2943H10.4118V9.94132ZM10.0588 9.94132H10.4118V10.2943H10.0588V9.94132ZM10.0588 10.2943H10.4118V10.6472H10.0588V10.2943ZM9.70588 10.2943H10.0588V10.6472H9.70588V10.2943ZM9.35294 10.2943H9.70588V10.6472H9.35294V10.2943ZM9.35294 10.6472H9.70588V11.0001H9.35294V10.6472ZM9.70588 10.6472H10.0588V11.0001H9.70588V10.6472ZM10.0588 10.6472H10.4118V11.0001H10.0588V10.6472ZM10.4118 10.6472H10.7647V11.0001H10.4118V10.6472ZM10.7647 10.6472H11.1176V11.0001H10.7647V10.6472ZM11.1176 10.6472H11.4706V11.0001H11.1176V10.6472ZM11.4706 10.6472H11.8235V11.0001H11.4706V10.6472ZM11.4706 10.2943H11.8235V10.6472H11.4706V10.2943ZM11.8235 10.2943H12.1765V10.6472H11.8235V10.2943ZM12.1765 10.2943H12.5294V10.6472H12.1765V10.2943ZM12.5294 10.2943H12.8824V10.6472H12.5294V10.2943ZM12.8824 10.2943H13.2353V10.6472H12.8824V10.2943ZM13.2353 10.2943H13.5882V10.6472H13.2353V10.2943ZM13.2353 10.6472H13.5882V11.0001H13.2353V10.6472ZM12.8824 10.6472H13.2353V11.0001H12.8824V10.6472ZM12.5294 10.6472H12.8824V11.0001H12.5294V10.6472ZM12.1765 10.6472H12.5294V11.0001H12.1765V10.6472ZM11.8235 10.6472H12.1765V11.0001H11.8235V10.6472ZM11.1176 10.2943H11.4706V10.6472H11.1176V10.2943ZM10.7647 10.2943H11.1176V10.6472H10.7647V10.2943ZM10.4118 10.2943H10.7647V10.6472H10.4118V10.2943ZM9 11.0001H9.35294V11.3531H9V11.0001ZM9.35294 11.0001H9.70588V11.3531H9.35294V11.0001ZM9.70588 11.0001H10.0588V11.3531H9.70588V11.0001ZM10.0588 11.0001H10.4118V11.3531H10.0588V11.0001ZM10.4118 11.0001H10.7647V11.3531H10.4118V11.0001ZM10.7647 11.0001H11.1176V11.3531H10.7647V11.0001ZM11.1176 11.0001H11.4706V11.3531H11.1176V11.0001ZM11.4706 11.0001H11.8235V11.3531H11.4706V11.0001ZM11.8235 11.0001H12.1765V11.3531H11.8235V11.0001ZM12.1765 11.0001H12.5294V11.3531H12.1765V11.0001ZM12.5294 11.0001H12.8824V11.3531H12.5294V11.0001ZM12.8824 11.0001H13.2353V11.3531H12.8824V11.0001ZM13.2353 11.0001H13.5882V11.3531H13.2353V11.0001ZM13.5882 11.0001H13.9412V11.3531H13.5882V11.0001ZM13.5882 11.3531H13.9412V11.706H13.5882V11.3531ZM13.5882 11.706H13.9412V12.059H13.5882V11.706ZM13.2353 11.706H13.5882V12.059H13.2353V11.706ZM13.2353 11.3531H13.5882V11.706H13.2353V11.3531ZM12.8824 11.3531H13.2353V11.706H12.8824V11.3531ZM12.8824 11.706H13.2353V12.059H12.8824V11.706ZM12.5294 11.3531H12.8824V11.706H12.5294V11.3531ZM11.4706 11.3531H11.8235V11.706H11.4706V11.3531ZM11.4706 11.706H11.8235V12.059H11.4706V11.706ZM11.4706 12.059H11.8235V12.4119H11.4706V12.059ZM11.4706 12.4119H11.8235V12.7648H11.4706V12.4119ZM11.4706 12.7648H11.8235V13.1178H11.4706V12.7648ZM11.4706 13.1178H11.8235V13.4707H11.4706V13.1178ZM11.4706 13.4707H11.8235V13.8237H11.4706V13.4707ZM11.1176 13.4707H11.4706V13.8237H11.1176V13.4707ZM11.1176 13.1178H11.4706V13.4707H11.1176V13.1178ZM11.1176 12.7648H11.4706V13.1178H11.1176V12.7648ZM11.1176 12.4119H11.4706V12.7648H11.1176V12.4119ZM11.1176 12.059H11.4706V12.4119H11.1176V12.059ZM11.1176 11.706H11.4706V12.059H11.1176V11.706ZM11.1176 11.3531H11.4706V11.706H11.1176V11.3531ZM10.0588 11.3531H10.4118V11.706H10.0588V11.3531ZM9.70588 11.3531H10.0588V11.706H9.70588V11.3531ZM9 11.3531H9.35294V11.706H9V11.3531ZM9.35294 11.3531H9.70588V11.706H9.35294V11.3531ZM9 11.706H9.35294V12.059H9V11.706ZM9 12.059H9.35294V12.4119H9V12.059ZM9 12.4119H9.35294V12.7648H9V12.4119ZM9 12.7648H9.35294V13.1178H9V12.7648ZM9.35294 12.7648H9.70588V13.1178H9.35294V12.7648ZM9.70588 12.7648H10.0588V13.1178H9.70588V12.7648ZM9.70588 12.4119H10.0588V12.7648H9.70588V12.4119ZM9.70588 12.059H10.0588V12.4119H9.70588V12.059ZM9.70588 11.706H10.0588V12.059H9.70588V11.706ZM9.35294 11.706H9.70588V12.059H9.35294V11.706ZM9.35294 12.059H9.70588V12.4119H9.35294V12.059ZM9.35294 12.4119H9.70588V12.7648H9.35294V12.4119ZM9.35294 13.1178H9.70588V13.4707H9.35294V13.1178ZM9.35294 13.4707H9.70588V13.8237H9.35294V13.4707ZM9.70588 13.4707H10.0588V13.8237H9.70588V13.4707ZM10.0588 13.4707H10.4118V13.8237H10.0588V13.4707ZM10.0588 13.1178H10.4118V13.4707H10.0588V13.1178ZM10.0588 12.7648H10.4118V13.1178H10.0588V12.7648ZM10.0588 12.4119H10.4118V12.7648H10.0588V12.4119ZM9.70588 13.1178H10.0588V13.4707H9.70588V13.1178ZM10.0588 13.8237H10.4118V14.1766H10.0588V13.8237ZM10.4118 13.8237H10.7647V14.1766H10.4118V13.8237ZM10.7647 13.8237H11.1176V14.1766H10.7647V13.8237ZM11.1176 13.8237H11.4706V14.1766H11.1176V13.8237ZM11.4706 13.8237H11.8235V14.1766H11.4706V13.8237ZM11.8235 13.8237H12.1765V14.1766H11.8235V13.8237ZM12.1765 13.8237H12.5294V14.1766H12.1765V13.8237ZM12.5294 13.8237H12.8824V14.1766H12.5294V13.8237ZM12.8824 13.8237H13.2353V14.1766H12.8824V13.8237ZM12.8824 13.4707H13.2353V13.8237H12.8824V13.4707ZM13.2353 13.1178H13.5882V13.4707H13.2353V13.1178ZM13.2353 13.4707H13.5882V13.8237H13.2353V13.4707ZM13.2353 13.8237H13.5882V14.1766H13.2353V13.8237ZM12.8824 13.1178H13.2353V13.4707H12.8824V13.1178ZM12.5294 13.1178H12.8824V13.4707H12.5294V13.1178ZM12.5294 12.7648H12.8824V13.1178H12.5294V12.7648ZM12.1765 12.7648H12.5294V13.1178H12.1765V12.7648ZM11.8235 12.7648H12.1765V13.1178H11.8235V12.7648ZM10.7647 12.7648H11.1176V13.1178H10.7647V12.7648ZM10.4118 12.7648H10.7647V13.1178H10.4118V12.7648ZM10.4118 13.1178H10.7647V13.4707H10.4118V13.1178ZM10.4118 13.4707H10.7647V13.8237H10.4118V13.4707ZM10.7647 13.4707H11.1176V13.8237H10.7647V13.4707ZM11.8235 13.4707H12.1765V13.8237H11.8235V13.4707ZM12.1765 13.4707H12.5294V13.8237H12.1765V13.4707ZM12.5294 13.4707H12.8824V13.8237H12.5294V13.4707ZM12.1765 13.1178H12.5294V13.4707H12.1765V13.1178ZM11.8235 13.1178H12.1765V13.4707H11.8235V13.1178ZM10.7647 13.1178H11.1176V13.4707H10.7647V13.1178ZM12.5294 14.1766H12.8824V14.5296H12.5294V14.1766ZM12.8824 14.1766H13.2353V14.5296H12.8824V14.1766ZM13.2353 14.1766H13.5882V14.5296H13.2353V14.1766ZM13.5882 14.1766H13.9412V14.5296H13.5882V14.1766ZM13.5882 13.8237H13.9412V14.1766H13.5882V13.8237ZM13.5882 14.5296H13.9412V14.8825H13.5882V14.5296ZM13.5882 14.8825H13.9412V15.2354H13.5882V14.8825ZM13.5882 15.2354H13.9412V15.5884H13.5882V15.2354ZM13.5882 15.5884H13.9412V15.9413H13.5882V15.5884ZM13.2353 15.5884H13.5882V15.9413H13.2353V15.5884ZM13.2353 15.2354H13.5882V15.5884H13.2353V15.2354ZM13.2353 14.8825H13.5882V15.2354H13.2353V14.8825ZM13.2353 14.5296H13.5882V14.8825H13.2353V14.5296ZM12.8824 14.5296H13.2353V14.8825H12.8824V14.5296ZM12.8824 14.8825H13.2353V15.2354H12.8824V14.8825ZM12.8824 15.2354H13.2353V15.5884H12.8824V15.2354ZM12.8824 15.5884H13.2353V15.9413H12.8824V15.5884ZM12.8824 15.9413H13.2353V16.2943H12.8824V15.9413ZM13.2353 16.2943H13.5882V16.6472H13.2353V16.2943ZM13.2353 15.9413H13.5882V16.2943H13.2353V15.9413ZM12.8824 16.2943H13.2353V16.6472H12.8824V16.2943ZM12.5294 15.2354H12.8824V15.5884H12.5294V15.2354ZM12.5294 15.5884H12.8824V15.9413H12.5294V15.5884ZM12.5294 15.9413H12.8824V16.2943H12.5294V15.9413ZM12.5294 16.2943H12.8824V16.6472H12.5294V16.2943ZM12.5294 16.6472H12.8824V17.0001H12.5294V16.6472ZM12.1765 16.6472H12.5294V17.0001H12.1765V16.6472ZM11.8235 16.6472H12.1765V17.0001H11.8235V16.6472ZM11.4706 16.6472H11.8235V17.0001H11.4706V16.6472ZM11.1176 16.6472H11.4706V17.0001H11.1176V16.6472ZM10.7647 16.6472H11.1176V17.0001H10.7647V16.6472ZM11.1176 17.0001H11.4706V17.3531H11.1176V17.0001ZM11.1176 17.3531H11.4706V17.706H11.1176V17.3531ZM11.4706 17.0001H11.8235V17.3531H11.4706V17.0001ZM11.4706 17.3531H11.8235V17.706H11.4706V17.3531ZM10.4118 16.6472H10.7647V17.0001H10.4118V16.6472ZM10.0588 16.6472H10.4118V17.0001H10.0588V16.6472ZM10.0588 16.2943H10.4118V16.6472H10.0588V16.2943ZM9.70588 16.2943H10.0588V16.6472H9.70588V16.2943ZM9.70588 15.9413H10.0588V16.2943H9.70588V15.9413ZM9.35294 15.9413H9.70588V16.2943H9.35294V15.9413ZM9.35294 16.2943H9.70588V16.6472H9.35294V16.2943ZM9 14.8825H9.35294V15.2354H9V14.8825ZM9.35294 14.8825H9.70588V15.2354H9.35294V14.8825ZM9.35294 15.2354H9.70588V15.5884H9.35294V15.2354ZM9.35294 15.5884H9.70588V15.9413H9.35294V15.5884ZM9 15.5884H9.35294V15.9413H9V15.5884ZM9 15.2354H9.35294V15.5884H9V15.2354ZM9.70588 15.2354H10.0588V15.5884H9.70588V15.2354ZM9.70588 14.8825H10.0588V15.2354H9.70588V14.8825ZM10.0588 15.2354H10.4118V15.5884H10.0588V15.2354ZM10.0588 15.5884H10.4118V15.9413H10.0588V15.5884ZM9.70588 15.5884H10.0588V15.9413H9.70588V15.5884ZM10.4118 15.5884H10.7647V15.9413H10.4118V15.5884ZM10.7647 15.5884H11.1176V15.9413H10.7647V15.5884ZM11.1176 15.5884H11.4706V15.9413H11.1176V15.5884ZM11.4706 15.5884H11.8235V15.9413H11.4706V15.5884ZM11.8235 15.5884H12.1765V15.9413H11.8235V15.5884ZM12.1765 15.5884H12.5294V15.9413H12.1765V15.5884ZM12.1765 15.9413H12.5294V16.2943H12.1765V15.9413ZM11.8235 15.9413H12.1765V16.2943H11.8235V15.9413ZM11.4706 15.9413H11.8235V16.2943H11.4706V15.9413ZM11.1176 15.9413H11.4706V16.2943H11.1176V15.9413ZM10.7647 15.9413H11.1176V16.2943H10.7647V15.9413ZM10.4118 15.9413H10.7647V16.2943H10.4118V15.9413ZM10.4118 16.2943H10.7647V16.6472H10.4118V16.2943ZM10.0588 15.9413H10.4118V16.2943H10.0588V15.9413ZM10.7647 16.2943H11.1176V16.6472H10.7647V16.2943ZM11.1176 16.2943H11.4706V16.6472H11.1176V16.2943ZM11.4706 16.2943H11.8235V16.6472H11.4706V16.2943ZM11.8235 16.2943H12.1765V16.6472H11.8235V16.2943ZM12.1765 16.2943H12.5294V16.6472H12.1765V16.2943ZM11.1176 15.2354H11.4706V15.5884H11.1176V15.2354ZM11.1176 14.8825H11.4706V15.2354H11.1176V14.8825ZM11.1176 14.5296H11.4706V14.8825H11.1176V14.5296ZM11.1176 14.1766H11.4706V14.5296H11.1176V14.1766ZM11.4706 14.1766H11.8235V14.5296H11.4706V14.1766ZM11.4706 14.5296H11.8235V14.8825H11.4706V14.5296ZM11.4706 14.8825H11.8235V15.2354H11.4706V14.8825ZM11.4706 15.2354H11.8235V15.5884H11.4706V15.2354Z" fill="#1A1A1A"/>
<path d="M20.7646 9.58838H21.1176V9.94132H20.7646V9.58838ZM21.1176 9.58838H21.4705V9.94132H21.1176V9.58838ZM21.4705 9.94132H21.8234V10.2943H21.4705V9.94132ZM22.1764 9.94132H22.5293V10.2943H22.1764V9.94132ZM21.8234 9.94132H22.1764V10.2943H21.8234V9.94132ZM21.1176 9.94132H21.4705V10.2943H21.1176V9.94132ZM20.7646 9.94132H21.1176V10.2943H20.7646V9.94132ZM20.4117 9.94132H20.7646V10.2943H20.4117V9.94132ZM20.0587 9.94132H20.4117V10.2943H20.0587V9.94132ZM19.7058 9.94132H20.0587V10.2943H19.7058V9.94132ZM19.7058 10.2943H20.0587V10.6472H19.7058V10.2943ZM19.3529 10.2943H19.7058V10.6472H19.3529V10.2943ZM18.9999 10.2943H19.3529V10.6472H18.9999V10.2943ZM18.9999 10.6472H19.3529V11.0001H18.9999V10.6472ZM19.3529 10.6472H19.7058V11.0001H19.3529V10.6472ZM19.7058 10.6472H20.0587V11.0001H19.7058V10.6472ZM20.0587 10.6472H20.4117V11.0001H20.0587V10.6472ZM20.4117 10.6472H20.7646V11.0001H20.4117V10.6472ZM20.7646 10.6472H21.1176V11.0001H20.7646V10.6472ZM21.1176 10.6472H21.4705V11.0001H21.1176V10.6472ZM21.1176 10.2943H21.4705V10.6472H21.1176V10.2943ZM21.4705 10.2943H21.8234V10.6472H21.4705V10.2943ZM21.8234 10.2943H22.1764V10.6472H21.8234V10.2943ZM22.1764 10.2943H22.5293V10.6472H22.1764V10.2943ZM22.5293 10.2943H22.8823V10.6472H22.5293V10.2943ZM22.8823 10.2943H23.2352V10.6472H22.8823V10.2943ZM22.8823 10.6472H23.2352V11.0001H22.8823V10.6472ZM22.5293 10.6472H22.8823V11.0001H22.5293V10.6472ZM22.1764 10.6472H22.5293V11.0001H22.1764V10.6472ZM21.8234 10.6472H22.1764V11.0001H21.8234V10.6472ZM21.4705 10.6472H21.8234V11.0001H21.4705V10.6472ZM20.7646 10.2943H21.1176V10.6472H20.7646V10.2943ZM20.4117 10.2943H20.7646V10.6472H20.4117V10.2943ZM20.0587 10.2943H20.4117V10.6472H20.0587V10.2943ZM18.647 11.0001H18.9999V11.3531H18.647V11.0001ZM18.9999 11.0001H19.3529V11.3531H18.9999V11.0001ZM19.3529 11.0001H19.7058V11.3531H19.3529V11.0001ZM19.7058 11.0001H20.0587V11.3531H19.7058V11.0001ZM20.0587 11.0001H20.4117V11.3531H20.0587V11.0001ZM20.4117 11.0001H20.7646V11.3531H20.4117V11.0001ZM20.7646 11.0001H21.1176V11.3531H20.7646V11.0001ZM21.1176 11.0001H21.4705V11.3531H21.1176V11.0001ZM21.4705 11.0001H21.8234V11.3531H21.4705V11.0001ZM21.8234 11.0001H22.1764V11.3531H21.8234V11.0001ZM22.1764 11.0001H22.5293V11.3531H22.1764V11.0001ZM22.5293 11.0001H22.8823V11.3531H22.5293V11.0001ZM22.8823 11.0001H23.2352V11.3531H22.8823V11.0001ZM23.2352 11.0001H23.5881V11.3531H23.2352V11.0001ZM23.2352 11.3531H23.5881V11.706H23.2352V11.3531ZM23.2352 11.706H23.5881V12.059H23.2352V11.706ZM22.8823 11.706H23.2352V12.059H22.8823V11.706ZM22.8823 11.3531H23.2352V11.706H22.8823V11.3531ZM22.5293 11.3531H22.8823V11.706H22.5293V11.3531ZM22.5293 11.706H22.8823V12.059H22.5293V11.706ZM22.1764 11.3531H22.5293V11.706H22.1764V11.3531ZM21.1176 11.3531H21.4705V11.706H21.1176V11.3531ZM21.1176 11.706H21.4705V12.059H21.1176V11.706ZM21.1176 12.059H21.4705V12.4119H21.1176V12.059ZM21.1176 12.4119H21.4705V12.7648H21.1176V12.4119ZM21.1176 12.7648H21.4705V13.1178H21.1176V12.7648ZM21.1176 13.1178H21.4705V13.4707H21.1176V13.1178ZM21.1176 13.4707H21.4705V13.8237H21.1176V13.4707ZM20.7646 13.4707H21.1176V13.8237H20.7646V13.4707ZM20.7646 13.1178H21.1176V13.4707H20.7646V13.1178ZM20.7646 12.7648H21.1176V13.1178H20.7646V12.7648ZM20.7646 12.4119H21.1176V12.7648H20.7646V12.4119ZM20.7646 12.059H21.1176V12.4119H20.7646V12.059ZM20.7646 11.706H21.1176V12.059H20.7646V11.706ZM20.7646 11.3531H21.1176V11.706H20.7646V11.3531ZM19.7058 11.3531H20.0587V11.706H19.7058V11.3531ZM19.3529 11.3531H19.7058V11.706H19.3529V11.3531ZM18.647 11.3531H18.9999V11.706H18.647V11.3531ZM18.9999 11.3531H19.3529V11.706H18.9999V11.3531ZM18.647 11.706H18.9999V12.059H18.647V11.706ZM18.647 12.059H18.9999V12.4119H18.647V12.059ZM18.647 12.4119H18.9999V12.7648H18.647V12.4119ZM18.647 12.7648H18.9999V13.1178H18.647V12.7648ZM18.9999 12.7648H19.3529V13.1178H18.9999V12.7648ZM19.3529 12.7648H19.7058V13.1178H19.3529V12.7648ZM19.3529 12.4119H19.7058V12.7648H19.3529V12.4119ZM19.3529 12.059H19.7058V12.4119H19.3529V12.059ZM19.3529 11.706H19.7058V12.059H19.3529V11.706ZM18.9999 11.706H19.3529V12.059H18.9999V11.706ZM18.9999 12.059H19.3529V12.4119H18.9999V12.059ZM18.9999 12.4119H19.3529V12.7648H18.9999V12.4119ZM18.9999 13.1178H19.3529V13.4707H18.9999V13.1178ZM18.9999 13.4707H19.3529V13.8237H18.9999V13.4707ZM19.3529 13.4707H19.7058V13.8237H19.3529V13.4707ZM19.7058 13.4707H20.0587V13.8237H19.7058V13.4707ZM19.7058 13.1178H20.0587V13.4707H19.7058V13.1178ZM19.7058 12.7648H20.0587V13.1178H19.7058V12.7648ZM19.7058 12.4119H20.0587V12.7648H19.7058V12.4119ZM19.3529 13.1178H19.7058V13.4707H19.3529V13.1178ZM19.7058 13.8237H20.0587V14.1766H19.7058V13.8237ZM20.0587 13.8237H20.4117V14.1766H20.0587V13.8237ZM20.4117 13.8237H20.7646V14.1766H20.4117V13.8237ZM20.7646 13.8237H21.1176V14.1766H20.7646V13.8237ZM21.1176 13.8237H21.4705V14.1766H21.1176V13.8237ZM21.4705 13.8237H21.8234V14.1766H21.4705V13.8237ZM21.8234 13.8237H22.1764V14.1766H21.8234V13.8237ZM22.1764 13.8237H22.5293V14.1766H22.1764V13.8237ZM22.5293 13.8237H22.8823V14.1766H22.5293V13.8237ZM22.5293 13.4707H22.8823V13.8237H22.5293V13.4707ZM22.8823 13.1178H23.2352V13.4707H22.8823V13.1178ZM22.8823 13.4707H23.2352V13.8237H22.8823V13.4707ZM22.8823 13.8237H23.2352V14.1766H22.8823V13.8237ZM22.5293 13.1178H22.8823V13.4707H22.5293V13.1178ZM22.1764 13.1178H22.5293V13.4707H22.1764V13.1178ZM22.1764 12.7648H22.5293V13.1178H22.1764V12.7648ZM21.8234 12.7648H22.1764V13.1178H21.8234V12.7648ZM21.4705 12.7648H21.8234V13.1178H21.4705V12.7648ZM20.4117 12.7648H20.7646V13.1178H20.4117V12.7648ZM20.0587 12.7648H20.4117V13.1178H20.0587V12.7648ZM20.0587 13.1178H20.4117V13.4707H20.0587V13.1178ZM20.0587 13.4707H20.4117V13.8237H20.0587V13.4707ZM20.4117 13.4707H20.7646V13.8237H20.4117V13.4707ZM21.4705 13.4707H21.8234V13.8237H21.4705V13.4707ZM21.8234 13.4707H22.1764V13.8237H21.8234V13.4707ZM22.1764 13.4707H22.5293V13.8237H22.1764V13.4707ZM21.8234 13.1178H22.1764V13.4707H21.8234V13.1178ZM21.4705 13.1178H21.8234V13.4707H21.4705V13.1178ZM20.4117 13.1178H20.7646V13.4707H20.4117V13.1178ZM22.1764 14.1766H22.5293V14.5296H22.1764V14.1766ZM22.5293 14.1766H22.8823V14.5296H22.5293V14.1766ZM22.8823 14.1766H23.2352V14.5296H22.8823V14.1766ZM23.2352 14.1766H23.5881V14.5296H23.2352V14.1766ZM23.2352 13.8237H23.5881V14.1766H23.2352V13.8237ZM23.2352 14.5296H23.5881V14.8825H23.2352V14.5296ZM23.2352 14.8825H23.5881V15.2354H23.2352V14.8825ZM23.2352 15.2354H23.5881V15.5884H23.2352V15.2354ZM23.2352 15.5884H23.5881V15.9413H23.2352V15.5884ZM22.8823 15.5884H23.2352V15.9413H22.8823V15.5884ZM22.8823 15.2354H23.2352V15.5884H22.8823V15.2354ZM22.8823 14.8825H23.2352V15.2354H22.8823V14.8825ZM22.8823 14.5296H23.2352V14.8825H22.8823V14.5296ZM22.5293 14.5296H22.8823V14.8825H22.5293V14.5296ZM22.5293 14.8825H22.8823V15.2354H22.5293V14.8825ZM22.5293 15.2354H22.8823V15.5884H22.5293V15.2354ZM22.5293 15.5884H22.8823V15.9413H22.5293V15.5884ZM22.5293 15.9413H22.8823V16.2943H22.5293V15.9413ZM22.8823 16.2943H23.2352V16.6472H22.8823V16.2943ZM22.8823 15.9413H23.2352V16.2943H22.8823V15.9413ZM22.5293 16.2943H22.8823V16.6472H22.5293V16.2943ZM22.1764 15.2354H22.5293V15.5884H22.1764V15.2354ZM22.1764 15.5884H22.5293V15.9413H22.1764V15.5884ZM22.1764 15.9413H22.5293V16.2943H22.1764V15.9413ZM22.1764 16.2943H22.5293V16.6472H22.1764V16.2943ZM22.1764 16.6472H22.5293V17.0001H22.1764V16.6472ZM21.8234 16.6472H22.1764V17.0001H21.8234V16.6472ZM21.4705 16.6472H21.8234V17.0001H21.4705V16.6472ZM21.1176 16.6472H21.4705V17.0001H21.1176V16.6472ZM20.7646 16.6472H21.1176V17.0001H20.7646V16.6472ZM20.4117 16.6472H20.7646V17.0001H20.4117V16.6472ZM20.7646 17.0001H21.1176V17.3531H20.7646V17.0001ZM20.7646 17.3531H21.1176V17.706H20.7646V17.3531ZM21.1176 17.0001H21.4705V17.3531H21.1176V17.0001ZM21.1176 17.3531H21.4705V17.706H21.1176V17.3531ZM20.0587 16.6472H20.4117V17.0001H20.0587V16.6472ZM19.7058 16.6472H20.0587V17.0001H19.7058V16.6472ZM19.7058 16.2943H20.0587V16.6472H19.7058V16.2943ZM19.3529 16.2943H19.7058V16.6472H19.3529V16.2943ZM19.3529 15.9413H19.7058V16.2943H19.3529V15.9413ZM18.9999 15.9413H19.3529V16.2943H18.9999V15.9413ZM18.9999 16.2943H19.3529V16.6472H18.9999V16.2943ZM18.647 14.8825H18.9999V15.2354H18.647V14.8825ZM18.9999 14.8825H19.3529V15.2354H18.9999V14.8825ZM18.9999 15.2354H19.3529V15.5884H18.9999V15.2354ZM18.9999 15.5884H19.3529V15.9413H18.9999V15.5884ZM18.647 15.5884H18.9999V15.9413H18.647V15.5884ZM18.647 15.2354H18.9999V15.5884H18.647V15.2354ZM19.3529 15.2354H19.7058V15.5884H19.3529V15.2354ZM19.3529 14.8825H19.7058V15.2354H19.3529V14.8825ZM19.7058 15.2354H20.0587V15.5884H19.7058V15.2354ZM19.7058 15.5884H20.0587V15.9413H19.7058V15.5884ZM19.3529 15.5884H19.7058V15.9413H19.3529V15.5884ZM20.0587 15.5884H20.4117V15.9413H20.0587V15.5884ZM20.4117 15.5884H20.7646V15.9413H20.4117V15.5884ZM20.7646 15.5884H21.1176V15.9413H20.7646V15.5884ZM21.1176 15.5884H21.4705V15.9413H21.1176V15.5884ZM21.4705 15.5884H21.8234V15.9413H21.4705V15.5884ZM21.8234 15.5884H22.1764V15.9413H21.8234V15.5884ZM21.8234 15.9413H22.1764V16.2943H21.8234V15.9413ZM21.4705 15.9413H21.8234V16.2943H21.4705V15.9413ZM21.1176 15.9413H21.4705V16.2943H21.1176V15.9413ZM20.7646 15.9413H21.1176V16.2943H20.7646V15.9413ZM20.4117 15.9413H20.7646V16.2943H20.4117V15.9413ZM20.0587 15.9413H20.4117V16.2943H20.0587V15.9413ZM20.0587 16.2943H20.4117V16.6472H20.0587V16.2943ZM19.7058 15.9413H20.0587V16.2943H19.7058V15.9413ZM20.4117 16.2943H20.7646V16.6472H20.4117V16.2943ZM20.7646 16.2943H21.1176V16.6472H20.7646V16.2943ZM21.1176 16.2943H21.4705V16.6472H21.1176V16.2943ZM21.4705 16.2943H21.8234V16.6472H21.4705V16.2943ZM21.8234 16.2943H22.1764V16.6472H21.8234V16.2943ZM20.7646 15.2354H21.1176V15.5884H20.7646V15.2354ZM20.7646 14.8825H21.1176V15.2354H20.7646V14.8825ZM20.7646 14.5296H21.1176V14.8825H20.7646V14.5296ZM20.7646 14.1766H21.1176V14.5296H20.7646V14.1766ZM21.1176 14.1766H21.4705V14.5296H21.1176V14.1766ZM21.1176 14.5296H21.4705V14.8825H21.1176V14.5296ZM21.1176 14.8825H21.4705V15.2354H21.1176V14.8825ZM21.1176 15.2354H21.4705V15.5884H21.1176V15.2354Z" fill="#1A1A1A"/>
</svg>
